<svg width="261" height="132" viewBox="0 0 261 132" fill="none" xmlns="http://www.w3.org/2000/svg">
<path opacity="0.6" d="M18.17 92.5452C19.1967 91.7385 20.04 90.4185 20.7 88.5852C21.36 86.6785 21.69 84.5519 21.69 82.2052C21.69 78.6852 21.03 75.4585 19.71 72.5252C18.39 69.5185 16.6667 66.8785 14.54 64.6052H0.9V56.4652H65.91V64.6052H56.23V126.095H46V64.6052H25.21C26.75 66.2185 28.29 68.6752 29.83 71.9752C31.37 75.2019 32.14 79.1985 32.14 83.9652C32.14 87.4119 31.7 90.4552 30.82 93.0952C29.94 95.6619 28.7667 97.8252 27.3 99.5852C25.8333 101.345 24.1467 102.702 22.24 103.655C20.4067 104.535 18.4633 104.975 16.41 104.975C13.4767 104.975 10.91 104.095 8.71 102.335C6.58333 100.502 5.52 98.1185 5.52 95.1852C5.52 92.9119 6.21667 91.1885 7.61 90.0152C9.07667 88.7685 10.6533 88.1452 12.34 88.1452L18.17 92.5452Z" fill="#FFFFEE"/>
<path d="M73.1 97.6C67.7667 97.6 62.8333 96.7333 58.3 95C53.8333 93.2 49.9333 90.7 46.6 87.5C43.3333 84.3 40.7667 80.5333 38.9 76.2C37.1 71.8667 36.2 67.1333 36.2 62C36.2 56.8667 37.1 52.1333 38.9 47.8C40.7667 43.4667 43.3667 39.7 46.7 36.5C50.0333 33.3 53.9333 30.8333 58.4 29.1C62.9333 27.3 67.8667 26.4 73.2 26.4C78.5333 26.4 83.4 27.2333 87.8 28.9C92.2667 30.5667 96.0667 33.1 99.2 36.5L94.6 41.2C91.6667 38.2667 88.4333 36.1667 84.9 34.9C81.3667 33.6333 77.5667 33 73.5 33C69.1667 33 65.1667 33.7333 61.5 35.2C57.9 36.6 54.7333 38.6333 52 41.3C49.3333 43.9 47.2333 46.9667 45.7 50.5C44.2333 53.9667 43.5 57.8 43.5 62C43.5 66.1333 44.2333 69.9667 45.7 73.5C47.2333 77.0333 49.3333 80.1333 52 82.8C54.7333 85.4 57.9 87.4333 61.5 88.9C65.1667 90.3 69.1333 91 73.4 91C77.4 91 81.1667 90.4 84.7 89.2C88.3 88 91.6 85.9667 94.6 83.1L98.8 88.7C95.4667 91.6333 91.5667 93.8667 87.1 95.4C82.6333 96.8667 77.9667 97.6 73.1 97.6ZM91.7 87.8V62H98.8V88.7L91.7 87.8ZM111.624 97V75.64H116.384V81.52L115.824 79.8C116.464 78.36 117.464 77.2667 118.824 76.52C120.21 75.7733 121.93 75.4 123.984 75.4V80.16C123.77 80.1067 123.57 80.08 123.384 80.08C123.197 80.0533 123.01 80.04 122.824 80.04C120.93 80.04 119.424 80.6 118.304 81.72C117.184 82.8133 116.624 84.4533 116.624 86.64V97H111.624ZM139.862 97V92.68L139.582 91.76V84.2C139.582 82.7333 139.142 81.6 138.262 80.8C137.382 79.9733 136.049 79.56 134.262 79.56C133.062 79.56 131.875 79.7467 130.702 80.12C129.555 80.4933 128.582 81.0133 127.782 81.68L125.822 78.04C126.969 77.16 128.329 76.5067 129.902 76.08C131.502 75.6267 133.155 75.4 134.862 75.4C137.955 75.4 140.342 76.1467 142.022 77.64C143.729 79.1067 144.582 81.3867 144.582 84.48V97H139.862ZM133.142 97.28C131.542 97.28 130.142 97.0133 128.942 96.48C127.742 95.92 126.809 95.16 126.142 94.2C125.502 93.2133 125.182 92.1067 125.182 90.88C125.182 89.68 125.462 88.6 126.022 87.64C126.609 86.68 127.555 85.92 128.862 85.36C130.169 84.8 131.902 84.52 134.062 84.52H140.262V87.84H134.422C132.715 87.84 131.569 88.12 130.982 88.68C130.395 89.2133 130.102 89.88 130.102 90.68C130.102 91.5867 130.462 92.3067 131.182 92.84C131.902 93.3733 132.902 93.64 134.182 93.64C135.409 93.64 136.502 93.36 137.462 92.8C138.449 92.24 139.155 91.4133 139.582 90.32L140.422 93.32C139.942 94.5733 139.075 95.5467 137.822 96.24C136.595 96.9333 135.035 97.28 133.142 97.28ZM163.119 75.4C164.825 75.4 166.345 75.7333 167.679 76.4C169.039 77.0667 170.105 78.0933 170.879 79.48C171.652 80.84 172.039 82.6 172.039 84.76V97H167.039V85.4C167.039 83.5067 166.585 82.0933 165.679 81.16C164.799 80.2267 163.559 79.76 161.959 79.76C160.785 79.76 159.745 80 158.839 80.48C157.932 80.96 157.225 81.68 156.719 82.64C156.239 83.5733 155.999 84.76 155.999 86.2V97H150.999V75.64H155.759V81.4L154.919 79.64C155.665 78.28 156.745 77.24 158.159 76.52C159.599 75.7733 161.252 75.4 163.119 75.4ZM186.422 97.28C184.075 97.28 182.262 96.68 180.982 95.48C179.702 94.2533 179.062 92.4533 179.062 90.08V70.92H184.062V89.96C184.062 90.9733 184.315 91.76 184.822 92.32C185.355 92.88 186.088 93.16 187.022 93.16C188.142 93.16 189.075 92.8667 189.822 92.28L191.222 95.84C190.635 96.32 189.915 96.68 189.062 96.92C188.208 97.16 187.328 97.28 186.422 97.28ZM175.542 79.8V75.8H189.782V79.8H175.542ZM207.455 75.4C209.161 75.4 210.681 75.7333 212.015 76.4C213.375 77.0667 214.441 78.0933 215.215 79.48C215.988 80.84 216.375 82.6 216.375 84.76V97H211.375V85.4C211.375 83.5067 210.921 82.0933 210.015 81.16C209.135 80.2267 207.895 79.76 206.295 79.76C205.121 79.76 204.081 80 203.175 80.48C202.268 80.96 201.561 81.68 201.055 82.64C200.575 83.5733 200.335 84.76 200.335 86.2V97H195.335V67.32H200.335V81.4L199.255 79.64C200.001 78.28 201.081 77.24 202.495 76.52C203.935 75.7733 205.588 75.4 207.455 75.4ZM219.237 97L231.838 69H236.958L249.598 97H244.158L233.318 71.76H235.398L224.598 97H219.237ZM225.038 90.52L226.438 86.44H241.558L242.957 90.52H225.038ZM252.678 97V75.64H257.678V97H252.678ZM255.198 72.12C254.265 72.12 253.492 71.8267 252.878 71.24C252.292 70.6533 251.998 69.9467 251.998 69.12C251.998 68.2667 252.292 67.56 252.878 67C253.492 66.4133 254.265 66.12 255.198 66.12C256.132 66.12 256.892 66.4 257.478 66.96C258.092 67.4933 258.398 68.1733 258.398 69C258.398 69.88 258.105 70.6267 257.518 71.24C256.932 71.8267 256.158 72.12 255.198 72.12Z" fill="#FDFFBB"/>
</svg>
