<svg width="148" height="151" viewBox="0 0 148 151" fill="none" xmlns="http://www.w3.org/2000/svg">
<path d="M0 0V151H148V0H0ZM79.2857 117.295C79.2857 131.994 70.7757 139.159 58.4567 139.159C47.3303 139.159 40.8718 133.281 37.5946 126.186L48.9193 119.192C51.1029 123.146 52.7613 126.489 57.5284 126.489C61.4927 126.489 64.75 124.666 64.75 117.571V70.1071H79.2857V117.295ZM112.107 138.822C99.193 138.822 90.8482 132.877 86.7749 124.666L98.1161 117.969C101.089 122.937 104.971 126.247 111.826 126.247C117.587 126.247 120.934 123.645 120.934 119.59C120.934 114.726 117.488 113.004 111.129 110.152L107.653 108.629C97.6172 104.274 90.9638 98.8005 90.9638 87.2429C90.9638 76.6022 98.9089 68.8297 111.327 68.8297C120.171 68.8297 126.523 71.634 131.099 79.8446L120.25 86.9598C117.865 82.6017 115.295 80.8929 111.311 80.8929C107.237 80.8929 104.654 83.5286 104.654 86.9598C104.654 91.2168 107.237 92.9391 113.197 95.5749L116.672 97.095C128.496 102.265 135.152 107.544 135.152 119.394C135.156 132.169 125.321 138.822 112.107 138.822Z" fill="#FFFFEE"/>
</svg>
