<svg width="151" height="151" viewBox="0 0 151 151" fill="none" xmlns="http://www.w3.org/2000/svg">
<path d="M95.0497 1.47764C88.7838 0.446268 79.6125 -0.0289707 73.3871 0.00136368C67.5521 0.00811808 61.7277 0.501924 55.9748 1.47764C40.5579 4.17403 37.7502 9.80274 37.7502 20.1973V32.358H75.5005V37.7508H25.4882C11.4802 37.7508 0.111278 54.492 4.93692e-05 75.2037V75.5003C-0.0048066 79.1214 0.348575 82.7342 1.05503 86.2858C4.18628 101.884 13.9407 113.25 25.4882 113.25H32.3574V95.0491C32.3574 84.4995 39.3816 74.843 50.8954 72.7702L54.2221 72.3556H95.0497C96.7644 72.3623 98.4721 72.1355 100.126 71.6815C103.906 70.672 107.245 68.4374 109.62 65.3276C111.995 62.2178 113.272 58.4083 113.251 54.4954V20.1973C113.251 10.4499 104.932 3.09884 95.0497 1.47764ZM54.9165 24.7744C53.5565 24.7791 52.2259 24.3798 51.0932 23.6272C49.9605 22.8746 49.0768 21.8026 48.5543 20.5471C48.0317 19.2916 47.8937 17.9092 48.1579 16.5751C48.4221 15.2411 49.0764 14.0156 50.0381 13.054C50.9997 12.0924 52.2252 11.4381 53.5592 11.1739C54.8933 10.9097 56.2757 11.0477 57.5312 11.5703C58.7868 12.0928 59.8588 12.9765 60.6114 14.1091C61.3641 15.2418 61.7634 16.5725 61.7587 17.9324C61.7591 18.831 61.5825 19.7209 61.2388 20.5512C60.8951 21.3816 60.3911 22.136 59.7557 22.7714C59.1202 23.4069 58.3657 23.9108 57.5354 24.2545C56.7051 24.5982 55.8151 24.7749 54.9165 24.7744Z" fill="#FFFFEE"/>
<path d="M149.408 62.3558C145.801 47.9941 136.461 37.7512 125.511 37.7512H119.541V53.7442C119.541 67.0812 110.778 76.7376 100.08 78.3925C98.9991 78.5601 97.9072 78.6446 96.8136 78.6453H55.976C54.2438 78.6437 52.5186 78.8646 50.8426 79.3026C43.3229 81.2777 37.748 87.5333 37.748 95.6461V129.948C37.748 139.722 47.5698 145.452 57.2063 148.253C68.7369 151.606 81.299 152.213 95.098 148.253C104.263 145.634 113.248 140.339 113.248 129.948V118.643H75.4982V113.25H125.511C135.433 113.25 144.032 104.847 148.245 92.5857C150.095 87.0806 151.026 81.3083 150.999 75.5007C151.008 71.0705 150.474 66.6558 149.408 62.3558ZM95.8935 125.384C97.2534 125.379 98.5841 125.778 99.7168 126.531C100.849 127.284 101.733 128.356 102.256 129.611C102.778 130.867 102.916 132.249 102.652 133.583C102.388 134.917 101.734 136.143 100.772 137.104C99.8103 138.066 98.5847 138.72 97.2507 138.984C95.9167 139.249 94.5342 139.111 93.2787 138.588C92.0232 138.065 90.9511 137.182 90.1985 136.049C89.4459 134.917 89.0466 133.586 89.0512 132.226C89.0508 131.327 89.2275 130.437 89.5712 129.607C89.9149 128.777 90.4188 128.022 91.0543 127.387C91.6897 126.751 92.4442 126.247 93.2745 125.904C94.1049 125.56 94.9948 125.383 95.8935 125.384Z" fill="#FFFFEE"/>
</svg>
