<svg width="141" height="191" viewBox="0 0 141 191" fill="none" xmlns="http://www.w3.org/2000/svg">
<path d="M69.564 35.2284C60.779 41.4071 50.8223 48.4101 45.4873 59.9962C36.221 80.2099 64.4485 102.259 65.655 103.187C65.9353 103.403 66.271 103.511 66.6056 103.511C66.961 103.511 67.3167 103.389 67.6056 103.147C68.166 102.679 68.3249 101.883 67.9885 101.234C67.8863 101.037 57.754 81.3566 58.1306 67.2376C58.2639 62.32 65.1459 56.7414 72.4315 50.8353C79.1044 45.4257 86.6685 39.2946 91.0941 32.1222C100.81 16.3345 90.0113 0.810389 89.901 0.65517C89.4721 0.0528626 88.6804 -0.165112 88.0035 0.131586C87.3273 0.43014 86.9526 1.1613 87.1071 1.88429C87.129 1.98715 89.2289 12.2531 83.3855 22.8299C80.9785 27.2005 75.6892 30.9206 69.564 35.2284Z" fill="#EBCD7F"/>
<path d="M106.573 42.19C107.193 41.7233 107.375 40.8718 107.001 40.1923C106.625 39.5127 105.808 39.213 105.083 39.4886C103.59 40.056 68.5371 53.5678 68.5371 69.8936C68.5371 81.1477 73.3444 87.0928 76.8547 91.4344C78.2316 93.1374 79.4202 94.6079 79.812 95.8634C80.9149 99.4813 78.3021 106.021 77.2034 108.235C76.8866 108.872 77.0418 109.643 77.5806 110.108C77.8718 110.36 78.2353 110.487 78.5992 110.487C78.9089 110.487 79.2201 110.395 79.4889 110.208C80.0916 109.789 94.2187 99.801 91.6851 87.7671C90.7412 83.193 88.4935 79.851 86.5102 76.9018C83.4377 72.3325 81.2186 69.0321 84.5852 62.9362C88.5295 55.8259 106.393 42.3252 106.573 42.19Z" fill="#EBCD7F"/>
<path d="M15.3249 110.747C14.7241 112.546 15.0078 114.331 16.1445 115.91C19.9443 121.185 33.4042 124.09 54.046 124.09C54.0471 124.09 54.0479 124.09 54.0486 124.09C56.8455 124.09 59.7984 124.035 62.8229 123.926C95.8254 122.745 108.066 112.464 108.571 112.027C109.122 111.55 109.269 110.757 108.927 110.115C108.584 109.474 107.846 109.152 107.141 109.346C95.518 112.519 73.8145 113.646 58.7605 113.646C41.9156 113.646 33.337 112.432 31.2367 111.536C32.3143 110.057 38.9612 107.414 47.1978 105.794C47.9851 105.64 48.5261 104.913 48.4481 104.114C48.3701 103.316 47.6995 102.707 46.897 102.707C42.0689 102.707 17.8559 103.094 15.3249 110.747Z" fill="#FFFFEE"/>
<path d="M125.758 100.157C118.951 100.157 112.496 103.569 112.224 103.713C111.595 104.05 111.276 104.772 111.448 105.466C111.622 106.158 112.245 106.645 112.959 106.646C113.103 106.646 127.479 106.764 128.781 114.977C129.934 122.063 115.179 133.544 109.396 137.37C108.771 137.784 108.529 138.582 108.819 139.273C109.066 139.86 109.638 140.228 110.255 140.228C110.363 140.228 110.472 140.217 110.581 140.194C111.953 139.9 144.152 132.805 140.747 114.058C138.67 102.569 131.449 100.157 125.758 100.157Z" fill="#FFFFEE"/>
<path d="M103.676 135.076C103.788 134.475 103.538 133.864 103.038 133.514L95.3178 128.106C94.9413 127.842 94.4656 127.759 94.0237 127.876C93.9432 127.897 85.8696 130.019 74.148 131.321C69.4959 131.843 64.2853 132.118 59.0784 132.118C47.3598 132.118 39.6976 130.741 38.5817 129.731C38.4339 129.447 38.4807 129.319 38.5071 129.247C38.7098 128.683 39.7964 128.013 40.4967 127.748C41.2702 127.462 41.6872 126.622 41.4466 125.833C41.2067 125.043 40.3931 124.579 39.5903 124.772C31.8457 126.64 28.0588 129.254 28.3343 132.539C28.8238 138.364 42.3152 141.354 53.7207 142.144C55.3609 142.256 57.1348 142.313 58.9919 142.313C58.993 142.313 58.9937 142.313 58.9948 142.313C77.9605 142.313 102.274 136.362 102.517 136.302C103.111 136.157 103.563 135.677 103.676 135.076Z" fill="#FFFFEE"/>
<path d="M45.4753 147.577C46.0602 147.196 46.3194 146.473 46.1118 145.807C45.9049 145.142 45.2822 144.704 44.5826 144.714C43.5447 144.741 34.4269 145.152 33.7886 150.958C33.5955 152.692 34.0924 154.278 35.2662 155.668C38.5399 159.548 47.3769 161.854 62.2775 162.718C64.0403 162.824 65.8309 162.877 67.6003 162.877C86.544 162.877 99.3024 156.945 99.8367 156.693C100.355 156.448 100.696 155.939 100.727 155.367C100.757 154.795 100.472 154.252 99.983 153.953L90.2262 147.997C89.8875 147.791 89.4824 147.722 89.0962 147.802C89.0346 147.815 82.8395 149.099 73.4904 150.369C71.7214 150.609 69.506 150.731 66.9066 150.731C57.5675 150.731 47.1797 149.206 45.1875 148.206C45.1586 148.02 45.1953 147.783 45.4753 147.577Z" fill="#FFFFEE"/>
<path d="M58.7699 180.786C102.162 180.749 125.451 173.033 129.938 168.177C131.526 166.459 131.697 164.832 131.563 163.77C131.229 161.156 128.848 159.555 128.578 159.382C127.926 158.963 127.052 159.072 126.544 159.658C126.037 160.244 126.026 161.101 126.534 161.686C126.808 162.038 126.966 162.627 126.166 163.428C124.372 165.104 106.283 170.188 76.1632 171.716C72.0373 171.93 67.7098 172.039 63.3016 172.04C36.3341 172.04 16.5979 168.346 14.0071 166.194C15.0056 164.759 21.9868 162.467 29.4109 161.17C30.2475 161.024 30.8127 160.236 30.6831 159.396C30.5535 158.558 29.78 157.98 28.9345 158.09C28.725 158.118 28.0143 158.161 27.1914 158.211C14.9418 158.959 0.786042 160.626 0.0474538 166.938C-0.176833 168.861 0.394655 170.607 1.74669 172.126C5.05493 175.843 14.5637 180.785 58.7684 180.785C58.7691 180.786 58.7691 180.786 58.7699 180.786Z" fill="#FFFFEE"/>
<path d="M138.463 169.544C137.849 169.26 137.124 169.404 136.667 169.898C136.604 169.966 130.079 176.788 110.464 180.794C102.954 182.299 88.8585 183.062 68.5676 183.062C48.2388 183.062 28.8948 182.262 28.702 182.254C27.894 182.215 27.2029 182.802 27.093 183.597C26.9827 184.392 27.4952 185.141 28.2754 185.327C28.4766 185.375 48.749 190.124 76.467 190.124C89.7613 190.124 102.698 189.045 114.918 186.914C137.704 182.919 139.299 171.621 139.356 171.142C139.435 170.473 139.075 169.828 138.463 169.544Z" fill="#FFFFEE"/>
</svg>
