<svg width="151" height="151" viewBox="0 0 151 151" fill="none" xmlns="http://www.w3.org/2000/svg">
<path d="M137.322 7.86356C135.199 12.9356 132.504 17.752 129.26 22.1752C115.061 7.98151 95.7895 0 75.7112 0C34.1782 0 0 34.2065 0 75.7851C0 96.5252 8.49539 116.381 23.5196 130.692L26.3121 133.169C39.9598 144.67 57.2456 151 75.0819 151C114.57 151 147.765 120.057 150.577 80.6211C152.642 61.3161 146.978 36.8998 137.322 7.86356ZM34.2765 131.125C33.0573 132.639 31.1891 133.523 29.2422 133.523C25.6828 133.523 22.7724 130.594 22.7724 127.036C22.7724 123.478 25.7025 120.548 29.2422 120.548C30.7171 120.548 32.1724 121.059 33.3129 122.003C36.0857 124.244 36.5184 128.353 34.2765 131.125ZM137.008 108.438C118.326 133.346 78.425 124.952 52.8405 126.151C52.8405 126.151 48.2979 126.426 43.7355 127.173C43.7355 127.173 45.4464 126.446 47.6686 125.601C65.623 119.349 74.1183 118.13 85.0326 112.528C105.583 102.069 125.897 79.186 130.125 55.3791C122.298 78.2817 98.5819 97.9603 76.9698 105.961C62.1619 111.427 35.4171 116.735 35.4171 116.735L34.3355 116.164C16.1255 107.298 15.5749 67.8429 48.6715 55.1039C63.1648 49.5208 77.0288 52.5876 92.6823 48.8524C109.398 44.8813 128.729 32.3389 136.595 15.9827C145.405 42.1487 156.004 83.1178 137.008 108.438Z" fill="#FFFFEE"/>
</svg>
